<svg xmlns="http://www.w3.org/2000/svg" width="195" height="60" fill="none"><path fill="currentColor" d="M26.033 8.057H8v43.102L26.033 8.057Zm12.692 0h18.01v43.102L38.724 8.057ZM32.38 23.943 43.858 51.16h-7.53l-3.431-8.665h-8.4l7.883-18.552Zm58.365 12.444 2.459 7.047c.081.176.204.258.421.258h4.728c.258 0 .299-.122.258-.38l-9.768-27.116c-.041-.218-.082-.259-.3-.259h-5.868c-.163 0-.258.123-.258.3-.082 1.425-.204 1.86-.38 2.28l-8.71 24.754c-.04.299.055.42.3.42h4.225c.258 0 .38-.08.475-.339l2.323-6.965h10.095Zm-8.75-4.604c1.277-3.856 2.962-8.798 3.641-11.623h.041c.843 2.96 2.826 8.826 3.723 11.623h-7.405Zm29.18 12.327c2.54 0 5.244-.461 7.988-1.643.218-.081.259-.176.259-.38-.082-.76-.177-1.86-.177-2.702V13.858c0-.163 0-.245-.204-.245h-4.605c-.177 0-.259.082-.259.299v8.65a15.136 15.136 0 0 0-1.82-.123c-7.432 0-11.997 4.902-11.997 11.026 0 7.101 4.688 10.645 10.815 10.645Zm3.002-4.725c-.76.245-1.603.34-2.459.34-3.369 0-6.127-1.901-6.127-6.518 0-4.087 2.839-6.504 6.603-6.504.761 0 1.426.081 1.983.299v12.383Zm19.932-16.945c-6.345 0-10.271 4.86-10.271 10.862 0 5.364 3.125 10.809 10.176 10.809 5.964 0 10.149-4.386 10.149-10.945 0-5.784-3.546-10.726-10.054-10.726Zm-.258 4.263c3.587 0 5.108 3.082 5.108 6.6 0 4.344-2.242 6.503-4.85 6.503-3.22 0-5.122-2.702-5.122-6.599 0-4.006 2.024-6.504 4.864-6.504Zm15.073-13.09c-.177 0-.299.082-.299.299v28.895c0 .122.122.34.299.38 2.024.625 4.144.923 6.331.923 6.263 0 12.35-3.883 12.35-11.704 0-5.662-3.886-9.967-9.972-9.967-1.4 0-2.704.218-3.845.598l-.055-9.084c0-.299-.081-.34-.38-.34h-4.429Zm13.477 19.309c0 4.684-3.206 6.884-6.67 6.884-.721 0-1.359-.04-1.943-.217v-12.33c.665-.257 1.467-.475 2.948-.475 3.342 0 5.665 2.119 5.665 6.138Zm22.394 1.521c2.065 0 3.763-.041 4.348-.177.217-.04.299-.122.339-.298.123-.462.177-1.426.177-2.608 0-4.019-2.418-8.92-8.668-8.92-6.385 0-9.931 5.2-9.931 11.066 0 5.2 2.744 10.605 10.434 10.605 2.88 0 4.741-.462 6.344-1.222.163-.082.245-.218.245-.462V38.91c0-.204-.122-.244-.245-.163-1.603.68-3.342 1.019-5.244 1.019-4.307 0-6.263-2.377-6.385-5.323h8.586Zm-8.586-3.64c.339-2.063 1.644-4.304 4.565-4.304 3.219 0 4.062 2.703 4.062 3.925v.339c-.177.04-.72.04-2.323.04h-6.304Z"/></svg>