<svg xmlns="http://www.w3.org/2000/svg" width="142" height="60" fill="none"><path fill="currentColor" d="M129.908 30.401c-3.126-.347-5.557-1.563-5.557-2.605 0-1.563 1.736-1.737 2.778-1.737s3.127.174 3.127 2.258c0 .174.173.347.347.347h6.6a.374.374 0 0 0 .347-.347c0-5.037-4.342-8.51-10.421-8.51-6.078 0-10.42 3.473-10.42 8.163 0 4.168 5.21 6.947 9.899 7.468 2.085.347 3.474 1.39 3.474 2.084 0 1.39-1.563 2.084-2.953 2.084-.521 0-3.473-.174-3.473-2.258 0-.173-.174-.347-.348-.347h-6.599c-.174 0-.348.174-.348.347 0 5.558 5.384 8.51 10.768 8.51s10.768-2.952 10.768-8.51c-.173-4.168-3.994-6.426-7.989-6.947ZM44.633 19.81c-1.91 0-3.821.521-5.21 1.737v-13.2A.373.373 0 0 0 39.074 8h-6.6a.374.374 0 0 0-.347.347V44.82c0 .174.174.347.347.347H38.9a.374.374 0 0 0 .348-.347V32.836c0-3.126 1.563-6.252 5.21-6.252 3.647 0 5.21 3.126 5.21 6.252V44.82c0 .174.174.347.348.347h6.426a.374.374 0 0 0 .347-.347V32.836c.174-7.294-5.21-13.026-12.157-13.026Zm34.039 13.023c0 3.473-2.779 6.252-6.079 6.252s-6.079-2.953-6.079-6.252c0-3.474 2.78-6.253 6.08-6.253 3.473 0 6.078 2.779 6.078 6.253ZM72.42 19.807c-7.295 0-13.026 5.905-13.026 13.026 0 7.12 5.905 13.026 13.026 13.026 2.431 0 4.689-1.216 6.426-3.3v2.257c0 .174.173.348.347.348h6.079a.373.373 0 0 0 .347-.348V32.833c0-7.121-5.905-13.026-13.2-13.026Zm34.909 13.026c0 3.473-2.779 6.252-6.079 6.252s-6.078-2.953-6.078-6.252c0-3.474 2.779-6.253 6.078-6.253 3.3 0 6.079 2.779 6.079 6.253Zm-6.079-13.026c-7.294 0-13.2 5.905-13.2 13.026 0 7.12 5.906 13.026 13.2 13.026 7.295 0 13.2-5.906 13.2-13.026 0-7.121-6.079-13.026-13.2-13.026ZM19.1 38.74c-3.3 1.389-7.295-.174-8.51-3.648-1.043-3.126.347-6.6 3.3-7.989 2.257-1.042 4.688-.695 6.599.695.174.173.347.173.521 0l5.558-2.258c.347-.174.52-.521.173-.868-3.82-4.516-10.247-6.08-15.804-3.3-5.905 2.952-8.684 10.073-6.253 16.325 2.78 6.947 10.595 10.247 17.368 7.295 5.558-2.432 8.51-7.99 7.816-13.547 0-.347-.521-.521-.869-.521l-5.384 2.431c-.173 0-.347.174-.347.521-.521 1.91-1.91 3.821-4.168 4.864Z"/></svg>