<svg xmlns="http://www.w3.org/2000/svg" width="208" height="60" fill="none"><path fill="currentColor" d="M200.37 39.748v-.543h.348c.196 0 .458.016.458.247 0 .25-.153.297-.37.297h-.436Zm0 .382h.239l.523.949h.589l-.589-.988c.305-.022.567-.17.567-.587 0-.517-.349-.682-.959-.682h-.872v2.257h.502v-.949Zm2.528-.177c0-1.326-1.025-2.096-2.18-2.096-1.155 0-2.179.77-2.179 2.096 0 1.327 1.024 2.099 2.179 2.099 1.155 0 2.18-.772 2.18-2.099Zm-.611 0c0 .967-.719 1.614-1.569 1.614v-.006c-.85.007-1.547-.641-1.547-1.608 0-.966.697-1.611 1.547-1.611s1.569.645 1.569 1.611ZM123.019 17.51l.002 23.8h6.717v-23.8h-6.719Zm-52.832-.033V41.31h6.776V23.213l5.25.002c1.739 0 2.976.434 3.815 1.328 1.062 1.133 1.495 2.96 1.495 6.302V41.31h6.564V28.142c0-9.398-5.984-10.665-11.84-10.665h-12.06Zm63.645.035V41.31h10.892c5.804 0 7.697-.966 9.748-3.132 1.447-1.52 2.382-4.858 2.382-8.507 0-3.343-.791-6.33-2.173-8.188-2.489-3.324-6.073-3.971-11.423-3.971h-9.426Zm6.662 5.18h2.888c4.188 0 6.897 1.884 6.897 6.768 0 4.888-2.709 6.77-6.897 6.77h-2.888V22.692Zm-27.157-5.18-5.605 18.86-5.372-18.86h-7.248l7.668 23.798h9.68l7.73-23.799h-6.853Zm46.642 23.798h6.716v-23.8h-6.716v23.8Zm18.826-23.792-9.377 23.783h6.623l1.484-4.203h11.088l1.416 4.203h7.192l-9.458-23.783h-8.968Zm4.361 4.34L187.228 33h-8.259l4.197-11.142Zm-155.989.328V18.79c.329-.024.661-.042 1-.052 9.28-.292 15.366 7.98 15.366 7.98s-6.575 9.139-13.624 9.139a8.55 8.55 0 0 1-2.742-.44V25.123c3.612.436 4.338 2.034 6.51 5.656l4.83-4.076s-3.526-4.628-9.469-4.628c-.647 0-1.265.046-1.87.112Zm0-11.217v5.072c.333-.027.667-.048 1-.06 12.904-.435 21.31 10.59 21.31 10.59S39.83 38.323 29.772 38.323c-.922 0-1.785-.085-2.595-.23v3.137c.692.088 1.412.14 2.161.14 9.36 0 16.13-4.785 22.686-10.448 1.086.872 5.535 2.99 6.452 3.918-6.234 5.223-20.76 9.432-28.994 9.432-.793 0-1.557-.048-2.305-.12v4.406h35.578v-37.59H27.177Zm0 24.449v2.676C18.518 36.55 16.115 27.54 16.115 27.54s4.158-4.61 11.062-5.355v2.936l-.014-.001c-3.622-.435-6.454 2.952-6.454 2.952s1.587 5.704 6.468 7.345ZM11.8 27.152s5.131-7.579 15.378-8.363v-2.748C15.827 16.951 6 26.571 6 26.571s5.566 16.107 21.177 17.58V41.23C15.722 39.787 11.8 27.152 11.8 27.152Z"/></svg>