<svg xmlns="http://www.w3.org/2000/svg" width="208" height="60" fill="none"><path fill="currentColor" d="M14.105 21.098h4.477c1.655 0 3.699 0 4.867 1.574.39.492.681 1.18.778 2.558 0 2.46-.973 3.935-3.406 4.329-.681.098-1.168.098-2.433.098h-4.283v-8.559ZM7 15.786v28.53h7.105v-9.347h4.77c4.087-.098 8.078-.295 10.706-4.132 1.557-2.262 1.654-4.722 1.654-5.705 0-2.853-.973-4.92-1.557-5.805-.487-.688-.973-1.18-1.265-1.377-2.142-1.869-4.672-2.164-7.397-2.262L7 15.786Zm31.828 18.889c.681-2.36 1.46-4.722 2.141-7.083.487-1.672.876-3.345 1.363-5.017l3.698 12.1h-7.202Zm7.3-18.888H38.73l-10.51 28.53h7.494l1.363-4.526h10.609l1.362 4.525h7.495L46.127 15.787Zm19.662 0 6.131 10.526c1.46 2.558 2.92 5.214 4.283 7.772l-.292-18.298h6.813v28.53h-6.91l-5.256-9.051a62.68 62.68 0 0 1-2.53-4.329c-.877-1.476-1.558-3.05-2.434-4.525l.195 18.003h-6.813v-28.53l6.813-.098Zm41.168 0v5.608h-7.3v22.921h-7.105V21.395h-7.397v-5.608h21.802Zm21.318 14.953c-.097 2.263-.681 4.526-2.238 6.296-1.752 1.87-3.991 2.165-4.867 2.165-1.849 0-3.504-.689-4.769-2.066-1.168-1.28-2.336-3.345-2.336-7.28 0-3.05.973-6.591 3.796-8.165.487-.296 1.557-.787 3.114-.787.487 0 1.558 0 2.726.492 1.557.688 2.336 1.672 2.725 2.164.876 1.18 1.947 3.64 1.849 7.181Zm1.752 11.51c3.504-2.853 5.353-7.575 5.353-11.903 0-3.935-1.557-8.559-4.282-11.412-1.46-1.574-4.769-3.935-10.123-3.935-6.521 0-9.83 3.64-11.29 5.804-2.433 3.64-2.725 7.772-2.725 9.248 0 1.672.195 7.083 4.088 11.215 3.601 3.836 8.273 4.131 10.025 4.131 4.672-.196 7.397-1.869 8.954-3.148Zm15.666-26.463 6.132 10.526a305.78 305.78 0 0 1 4.282 7.772l-.292-18.298h6.813v28.53h-6.91l-5.256-9.051a62.433 62.433 0 0 1-2.53-4.329c-.876-1.476-1.558-3.05-2.434-4.525l.195 18.003h-6.813v-28.53l6.813-.098Zm42.439 0v5.51h-13.821v5.213h12.945v5.41h-12.945v6.789h15.086v5.607h-22.191V15.787h20.926Zm7.201 4.33v-1.673h1.07c.39 0 .876 0 1.071.394.097.098.097.295.097.393 0 .099 0 .295-.097.394-.195.393-.487.393-1.265.393h-.876v.099Zm3.796 4.131c-.292-.59-.487-1.377-.487-1.574-.097-.491-.097-1.18-.487-1.574-.097-.098-.194-.196-.486-.295.292-.098.292-.098.486-.197a.767.767 0 0 0 .39-.393c.194-.197.389-.492.389-1.082 0-.197 0-.689-.389-1.18-.584-.69-1.558-.69-2.336-.69h-2.336v6.887h1.46V21.2h.389c.487 0 .681 0 .876.196.292.197.389.394.487 1.083.097.491.097 1.082.292 1.574 0 .098.097.098.097.196h1.655Zm2.53-3.443c0-1.18-.292-2.36-1.071-3.246-1.07-1.378-2.627-2.165-4.282-2.165-2.239 0-3.601 1.28-4.185 1.968-.39.492-1.266 1.673-1.266 3.443 0 2.361 1.363 3.739 2.044 4.329.974.689 2.142 1.082 3.31 1.082.778 0 2.628-.197 4.087-1.87 1.266-1.377 1.363-2.852 1.363-3.54Zm-.487 0c0 2.066-1.265 3.935-3.211 4.624-.779.295-1.363.295-1.655.295a4.987 4.987 0 0 1-4.575-3.05c-.194-.59-.389-1.18-.389-1.869 0-2.262 1.363-3.541 2.044-4.033a4.781 4.781 0 0 1 2.92-.984c2.239 0 3.407 1.279 3.893 1.968a5.537 5.537 0 0 1 .973 3.05Z"/></svg>