<svg xmlns="http://www.w3.org/2000/svg" width="262" height="60" fill="none"><path fill="currentColor" d="m9.137 18.152 21.431-11.48L52 18.152V28.51l-9.928-2.91v-2.154l-11.504-6.164-8.474 4.537L52 30.71v10.404L30.568 52.526 9.137 41.114V30.71l9.903 2.91v2.155l11.528 6.187 8.622-4.63L9.137 28.51V18.152Zm59.145 21.946c-.141-.087-.235-.306-.235-.524v-4.109c0-.131.141-.306.329-.131 2.02 1.224 4.51 1.748 6.72 1.748 2.772 0 3.946-.918 3.946-2.142 0-1.049-.799-1.88-3.336-2.884l-1.88-.7c-4.51-1.748-5.826-3.89-5.826-6.6 0-3.715 3.007-6.688 8.928-6.688 2.302 0 4.417.306 5.732.918a.475.475 0 0 1 .235.437v3.89c0 .132-.094.307-.329.132-1.456-.743-3.524-1.137-5.638-1.137-2.867 0-3.853.918-3.853 2.055 0 1.049.752 1.748 3.524 2.797l1.41.525c4.886 1.88 6.296 4.02 6.296 6.862 0 4.196-3.618 6.775-9.304 6.775-2.772 0-5.075-.437-6.72-1.224Zm24.104-8.04c0 2.972 1.457 5.027 4.84 5.027 2.773 0 4.558-1.355 4.558-5.114V18.814c0-.219.094-.306.329-.306h4.511c.235 0 .329.087.329.306v13.462c0 6.47-4.417 9.048-9.868 9.048-5.967 0-9.82-2.884-9.82-8.916V18.814c0-.219 0-.306.329-.306h4.51c.235 0 .33.087.33.306l-.048 13.244Zm19.645-13.159c0-.219 0-.306.235-.394 1.316 0 4.887-.087 7.518-.087 7.847 0 9.163 3.715 9.163 5.988 0 2.36-1.316 3.716-2.302 4.328 1.409.699 3.43 2.141 3.43 5.245 0 4.196-3.947 6.993-10.197 6.993-3.618 0-6.202 0-7.612-.087-.141 0-.235-.131-.235-.306v-21.68Zm4.887 8.348h2.537c1.222 0 2.679.088 3.29.132.657-.525 1.127-1.224 1.127-2.36 0-1.75-1.409-2.667-4.182-2.667-1.127 0-1.879 0-2.678.087v4.808h-.094Zm0 9.835c.752 0 1.551.088 2.678.088 3.196 0 5.075-.918 5.075-2.885 0-1.137-.47-2.142-2.302-2.58-.564-.13-1.41-.218-2.303-.218h-3.195v5.595h.047Zm16.348 3.016c-.141-.087-.235-.306-.235-.524v-4.109c0-.131.141-.306.329-.131 2.021 1.224 4.511 1.748 6.72 1.748 2.772 0 3.947-.918 3.947-2.142 0-1.049-.799-1.88-3.337-2.884l-1.879-.7c-4.511-1.748-5.827-3.89-5.827-6.6 0-3.715 3.008-6.688 8.928-6.688 2.303 0 4.417.306 5.733.918a.474.474 0 0 1 .235.437v3.89c0 .132-.094.307-.329.132-1.457-.743-3.524-1.137-5.639-1.137-2.866 0-3.853.918-3.853 2.055 0 1.049.752 1.748 3.524 2.797l1.41.525c4.887 1.88 6.296 4.02 6.296 6.862 0 4.196-3.618 6.775-9.303 6.775-2.867 0-5.075-.437-6.72-1.224Zm24.526-17.307h-7.284c-.235 0-.235-.087-.235-.306l.47-3.671c0-.219.094-.306.423-.306h18.561c.235 0 .423.087.423.306l.422 3.671c0 .219-.094.394-.328.394h-7.19v17.79c0 .218-.141.393-.329.393h-4.417c-.234 0-.422-.087-.422-.306l-.094-17.965Zm17.341 12.851-1.786 5.113c-.094.132-.141.306-.423.306h-4.229c-.235 0-.329-.13-.329-.393l7.377-19.757c.141-.393.329-.743.423-2.142 0-.13.094-.218.235-.218h5.874c.141 0 .235 0 .329.218l8.317 21.986c.094.132 0 .306-.141.306h-4.84c-.235 0-.329-.087-.423-.218l-1.88-5.114h-8.504v-.087Zm7.095-4.284c-.752-2.273-2.209-6.382-2.96-8.83-.564 2.273-1.88 6.076-2.867 8.83h5.827Zm11.795 9.57c-.235 0-.329 0-.329-.306v-21.9c0-.13.094-.305.235-.305h5.968c.329 0 .329.087.47.306 2.443 4.24 7.424 13.244 8.646 15.735 0-1.005-.094-2.054-.094-5.42V18.68c0-.218.094-.306.329-.306h4.181c.235 0 .329.087.329.393v21.812c0 .306-.094.393-.422.393h-5.31c-.329 0-.423-.087-.47-.306-2.021-3.803-7.612-13.375-9.163-17.09.141 1.966.141 3.365.141 6.6v10.403c0 .218-.094.306-.329.306h-4.182v.044Zm41.867-.654c0 .219-.094.394-.329.437-1.222.394-3.007.612-5.169.612-7.189 0-12.734-3.934-12.734-11.495 0-6.994 5.169-11.715 13.345-11.715 2.302 0 3.853.131 4.84.612a.453.453 0 0 1 .235.394v3.715c0 .306-.141.306-.329.218-1.222-.524-2.961-.742-4.84-.742-4.887 0-7.988 2.797-7.988 7.3 0 5.332 4.182 7.386 8.082 7.386 1.785 0 3.195-.131 4.511-.524.141-.088.329 0 .329.13v3.672h.047Zm19.5.349c0 .306-.094.306-.423.306H239.93c-.234 0-.328-.088-.328-.306v-21.9c0-.218.094-.305.328-.305h14.567c.329 0 .329 0 .423.306l.423 3.715c0 .131 0 .306-.235.306h-10.291v4.546h9.398c.141 0 .329.088.329.306V31.4c0 .218-.141.218-.329.218h-9.398v5.027h10.855c.329 0 .329.087.329.306l-.611 3.672Z"/></svg>