<svg xmlns="http://www.w3.org/2000/svg" width="170" height="60" fill="none"><path fill="currentColor" d="m7 43.94 12.917-12.918L7 18.102V43.94Zm58.908-13.487-8.41-12.306h5.926l5.626 9.218 5.722-9.218h5.319l-8.308 12.306L80.9 43.977h-5.875l-6.381-10.128-6.381 10.128h-5.674l9.32-13.524Zm24.869-12.305h4.459v4.001h.098c1.267-2.685 4.006-4.614 6.74-4.614 1.418 0 2.128.155 3.139.358v4.256c-.86-.356-1.824-.457-2.634-.457-4.253 0-7.04 4.052-7.04 10.534v11.755h-4.762V18.148Zm18.947 0h4.759V43.98h-4.759V18.148Zm5.063-5.778h-5.37V7h5.37v5.37Z"/><path fill="currentColor" d="M85.852 33.753h-5.367v-5.37h5.367v5.37Zm50.315-11.757h-6.838v14.13c0 2.993 1.824 4.61 4 4.61 1.468 0 2.53-.456 3.24-.914v4.058c-1.061.302-2.53.704-4.05.704-4.913 0-7.952-2.326-7.952-7.49V21.996h-5.828v-3.85h5.828V12.17l4.762-1.522v7.5h6.838v3.85Zm21.014 6.588c0-3.953-2.333-7.196-6.436-7.196-4.66 0-6.581 3.848-6.94 7.196h13.376Zm3.089 14.332c-1.825.66-3.902 1.672-8.157 1.672-9.17 0-13.371-5.573-13.371-13.982 0-7.645 4.813-13.07 12.106-13.07 8.612 0 11.395 6.282 11.395 14.592h-18.438c0 5.114 4.003 8.614 8.509 8.614 3.139 0 6.791-1.622 7.956-2.587v4.76m-115.988.298a21.845 21.845 0 0 0 3.692-12.183 21.83 21.83 0 0 0-3.689-12.185L32.098 31.03l12.184 12.183Zm-6.081-30.464a21.874 21.874 0 0 0-12.184-3.685 21.905 21.905 0 0 0-12.19 3.685l12.19 12.185L38.2 12.749Zm-24.374 36.55a21.889 21.889 0 0 0 12.185 3.683A21.89 21.89 0 0 0 38.198 49.3L26.012 37.111 13.827 49.3Z"/></svg>